<svg id="Layer_1" data-name="Layer 1" xmlns="http://www.w3.org/2000/svg" viewBox="0 0 120 120"><defs><style>.cls-1{fill:none;stroke:#0078c8;stroke-miterlimit:10;}</style></defs><title>CSS3-b</title><path class="cls-1" d="M27.64,83.27l25.57,9.67a1.28,1.28,0,0,0,.45.08,1.32,1.32,0,0,0,.39-.06L83.5,83.37a1.26,1.26,0,0,0,.86-1l9.73-48.47a1.26,1.26,0,0,0-.27-1.05,1.28,1.28,0,0,0-1-.46h-55a1.27,1.27,0,0,0-1.25,1l-2.13,10.8a1.27,1.27,0,0,0,1,1.49l.25,0H78.11l-.9,4.46h-43a1.27,1.27,0,0,0-1.25,1L30.84,62a1.27,1.27,0,0,0,1,1.49l.25,0H74.55L72.66,73,54,79.06,41.92,74.48l1-5a1.27,1.27,0,0,0-1-1.49l-.25,0h-11a1.27,1.27,0,0,0-1.25,1L26.84,81.84A1.26,1.26,0,0,0,27.64,83.27Zm4.07-12.78h8.42L39.21,75a1.26,1.26,0,0,0,.8,1.43l13.46,5.09a1.27,1.27,0,0,0,.85,0l19.83-6.45a1.26,1.26,0,0,0,.86-1l2.34-11.64a1.26,1.26,0,0,0-.27-1.05,1.28,1.28,0,0,0-1-.46H33.64l1.65-8.21h43a1.27,1.27,0,0,0,1.25-1l1.42-7a1.26,1.26,0,0,0-.27-1.07,1.28,1.28,0,0,0-1-.46H37.21L38.86,35H91.27L82,81.18,53.68,90.42,29.52,81.29Z"/><rect class="cls-1" x="1" y="1" width="118" height="118"/></svg>