<svg id="Layer_1" data-name="Layer 1" xmlns="http://www.w3.org/2000/svg" viewBox="0 0 120 120"><defs><style>.cls-1{fill:none;stroke:#f35045;stroke-miterlimit:10;}</style></defs><title>HTML5-r</title><path class="cls-1" d="M87,32.13H33.79a1.26,1.26,0,0,0-1.25,1.37l2.94,32.43a1.29,1.29,0,0,0,1.28,1.14H71.9l-1,11.22-10.49,3-10.48-3-.83-9.1A1.26,1.26,0,0,0,47.82,68H37.08a1.26,1.26,0,0,0-1.25,1.37l1.66,18.24a1.26,1.26,0,0,0,.91,1.09L60,94.9a1.26,1.26,0,0,0,.69,0l21.63-6.14a1.26,1.26,0,0,0,.91-1.09l3-32.44A1.26,1.26,0,0,0,85,53.86H47.64l-.77-8.53H86a1.26,1.26,0,0,0,1.25-1.14l1-10.7A1.26,1.26,0,0,0,87,32.13Zm-2.13,10.7H45.5a1.26,1.26,0,0,0-1.25,1.37l1,11a1.26,1.26,0,0,0,1.25,1.14H83.63L80.83,86.58,60.38,92.39,39.91,86.58l-1.46-16h8.21l.8,8.82a1.26,1.26,0,0,0,.91,1.09L60,83.79a1.25,1.25,0,0,0,.69,0l11.66-3.31a1.26,1.26,0,0,0,.91-1.09l1.24-13.45a1.26,1.26,0,0,0-1.25-1.37H37.87L35.16,34.64H85.62Z"/><rect class="cls-1" x="1" y="1" width="118" height="118"/></svg>