<svg id="Layer_1" data-name="Layer 1" xmlns="http://www.w3.org/2000/svg" viewBox="0 0 120 120"><defs><style>.cls-1{fill:none;stroke:#0078c8;stroke-miterlimit:10;}</style></defs><title>jquery-b</title><g id="Layer_5" data-name="Layer 5"><polygon class="cls-1" points="52.64 57.45 52.64 57.45 51.97 59.84 52.64 57.45 52.64 57.45"/><polygon class="cls-1" points="55.9 66.19 55.91 66.19 51.47 66.21 55.9 66.19 55.9 66.19"/><polygon class="cls-1" points="56.3 65.89 57.07 62.94 56.3 65.89 56.3 65.89 56.3 65.89"/><path class="cls-1" d="M72.65,52.3l-1.44,6.82Z"/><polygon class="cls-1" points="68.94 52.3 67.85 57.37 68.94 52.3 68.94 52.3"/><path class="cls-1" d="M72.4,52H69.32a.4.4,0,0,0-.38.31l-1.09,5.05-1.09,5.06a.4.4,0,0,1-.38.31H64.19c-2.15,0-1.91-1.49-1.47-3.52v-.1l.05-.25h0l.1-.53.11-.56.11-.57.52-2.48.5-2.43a.25.25,0,0,0-.18-.3H60.7a.4.4,0,0,0-.38.31l-.68,3.23L59,58.76h0l-.06.3c-.78,3.58-.57,7,3.68,7.09h6.8a.4.4,0,0,0,.38-.31l1.44-6.77,1.44-6.78a.25.25,0,0,0-.18-.3H72.4Z"/><path class="cls-1" d="M84.69,62.76a.25.25,0,0,1,.25.31l-.3,1.46"/><polygon class="cls-1" points="84.34 66 84.64 64.53 84.34 66 84.34 66 84.34 66"/><path class="cls-1" d="M76.45,60.88c0-.16.18-.44.35-.44h-.39c-.18,1.76,0,.44,0,.44Z"/><path class="cls-1" d="M84.69,62.76a.25.25,0,0,1,.25.31l-.3,1.46-.05.24"/><polygon class="cls-1" points="84.34 66 84.59 64.77 84.34 66 84.34 66 84.34 66"/><path class="cls-1" d="M33.65,60.88l.47-2.12-.55,2.43-.53,2.47.46-2.16Z"/><path class="cls-1" d="M39.4,52H36a.41.41,0,0,0-.38.3l-.32,1.42L35,55.1a.24.24,0,0,0,.17.29h3.52a.4.4,0,0,0,.38-.31l.31-1.42.31-1.42h0a.24.24,0,0,0-.15-.3h-.09Z"/><polygon class="cls-1" points="38.66 56.68 38.66 56.68 37.67 61.27 38.66 56.68"/><path class="cls-1" d="M34.63,56.67l-.47,2.12Z"/><path class="cls-1" d="M38.42,56.37H35a.4.4,0,0,0-.38.31l-.47,2.12-.5,2.08-.13.61-.46,2.16-.46,2.16a2.09,2.09,0,0,1-.17.6s-.63,1.9-1.71,1.87H29.68a.4.4,0,0,0-.38.3l-.35,1.49-.35,1.49a.24.24,0,0,0,.15.3h2.88c2.64,0,4.09-1.49,5-5.75l1.05-4.9,1-4.59a.24.24,0,0,0-.15-.3h-.09Z"/><path class="cls-1" d="M90.43,65.85l1-5.13Z"/><path class="cls-1" d="M90.21,66.09h0a1.62,1.62,0,0,1-.48.07H90"/><polygon class="cls-1" points="90.95 63.29 91.41 61.02 91.41 61.03 90.95 63.29 90.95 63.29"/><path class="cls-1" d="M101.07,54.64l.14.58a.24.24,0,0,1-.17.29H101"/><path class="cls-1" d="M100.93,54l.14.6Z"/><path class="cls-1" d="M91.41,61l.12-.61L92,58.12l-.55,2.64-.06.3Z"/><path class="cls-1" d="M101.21,55.22l-.14-.58-.14-.6-.07-.3C100.59,52.67,99.77,52,98,52H89.92a.4.4,0,0,0-.38.31h0l-.12.6-.15.7-.09.36L88,59.85l-1.22,5.71c0,.12-.11.29,0,.46a.75.75,0,0,0,.52.14h2.57a1.62,1.62,0,0,0,.48-.07c.1,0,.23-.38.26-.55l.46-2.26L91.51,61h0l.06-.3.55-2.64.43-2.25a.4.4,0,0,1,.38-.3H101a.24.24,0,0,0,.24-.3Z"/><path class="cls-1" d="M111.62,49.95h-3.24a.66.66,0,0,0-.48.25l-5.67,8.39c-.1.14-.21.12-.25,0l-.42-1.85a.41.41,0,0,0-.38-.3h-3.7a.22.22,0,0,0-.23.3l1.65,5.78a1.36,1.36,0,0,1,0,.6l-.72,2.8a.23.23,0,0,0,.15.29h3.73a.42.42,0,0,0,.39-.3l.72-2.8a1.86,1.86,0,0,1,.26-.55l9.29-12.31c.11-.14,0-.25-.12-.25Z"/><path class="cls-1" d="M82.39,57.18h0a.38.38,0,0,1-.36.33H77.36a.2.2,0,0,1-.22-.25h0v-.08a2.92,2.92,0,0,1,3.1-2c1.92,0,2.29.94,2.16,2ZM81,51.8c-6,0-7.4,3.63-8.2,7.31s-.73,7.24,5.47,7.24H84a.4.4,0,0,0,.37-.31l.29-1.22v-.24l.3-1.46a.25.25,0,0,0-.18-.3H79.12c-2.22,0-2.87-.59-2.64-2.32H85.4a.37.37,0,0,0,.33-.23.33.33,0,0,0,0-.08h0c1.32-5,.94-8.34-4.72-8.34Z"/><path class="cls-1" d="M52.72,57.16l-.09.3h0L52,59.84l-.67,2.38a.44.44,0,0,1-.4.3H47.38c-2.7,0-3.36-2.11-2.7-5.22s1.94-5.17,4.61-5.36c3.63-.27,4.4,2.28,3.52,5.27Zm2.44,5.18a39.92,39.92,0,0,0,2.06-6.43c.52-3.15-1.05-7.72-7.15-7.72s-8.69,4.4-9.67,9.1.31,9,6.33,8.93h9.19a.43.43,0,0,0,.39-.3l.77-3a.23.23,0,0,0-.15-.29H55.36a.19.19,0,0,1-.21-.22.26.26,0,0,1,0-.07Z"/><path class="cls-1" d="M8.92,54.32a8,8,0,0,0-.18,8.09l.1.18.06.11v.07L9,62.9l.12.21.07.11.14.22.06.1.2.3h0v0l.18.25.07.09.18.21.07.08.24.27h0l.25.25.08.08.18.17.08.08.26.25h0l.25.2.1.08.2.16.12.11.23.17.08.06h0l.22.15.1.06.34.21.1.05.25.18.14.07.18.1h.08l.29.13h.06l.34.14h.09l.33.12h0l.36.11h.09l.37.11C23.59,69.3,25.93,63,25.93,63c-2,2.53-5.47,3.2-8.79,2.46l-.19.12h-.1l-.36-.11h-.05l-.27-.15h-.1l-.34-.14h-.06L15.38,65H15.3l-.22-.11-.15-.08-.26-.15-.09-.05-.34-.21-.1-.18-.25-.17L13.81,64l-.23-.17-.11-.08-.21-.17-.09-.07-.26-.22h0l-.27-.25-.09-.1-.19-.19-.11-.12L12,62.39h0l-.25-.28h-.09l-.18-.22,0-.12-.2-.27a8.53,8.53,0,0,1-1-8.79"/><path class="cls-1" d="M14.1,52.29a5.81,5.81,0,0,0-.19,6,7.71,7.71,0,0,0,.54.88,4.24,4.24,0,0,0,.62.77l.27.28.07.07.28.25h0l.33.26.07.06.34.25h0l.16.11.07.05.25.15h0l.22.12h.08l.16.08h0l.33.15h.07l.26.11h.11l.25.09h.11l.35.11c6.24,1,7.68-3.77,7.68-3.77A5.93,5.93,0,0,1,20,60.33l-.35-.11h-.1l-.25-.09h-.11L19,60h-.08l-.33-.15-.17-.08-.1-.05-.21-.11H18l-.2-.11-.08-.05-.16-.11-.32-.24-.08-.06a7.53,7.53,0,0,1-2.55-3.63,5.64,5.64,0,0,1,.44-4.53"/><path class="cls-1" d="M18.47,50.78a3.64,3.64,0,0,0-.29,3.52A4.94,4.94,0,0,0,21,56.94l.16.05h.07l.22.06c3.45.67,4.4-1.76,4.63-2.13-.82,1.18-2.2,1.46-3.89,1.05l-.4-.12a4.94,4.94,0,0,1-1.35-.69C19,54,18,51.83,19,50"/></g><rect class="cls-1" x="1" y="1" width="118" height="118"/></svg>