<svg id="Layer_1" data-name="Layer 1" xmlns="http://www.w3.org/2000/svg" viewBox="0 0 120 120"><defs><style>.cls-1{fill:none;stroke:#f35045;stroke-miterlimit:10;}</style></defs><title>JS-r</title><g id="Layer_1-2" data-name="Layer 1-2"><path class="cls-1" d="M33.87,24.14H49.32V67.43C49.32,86.94,40,93.75,25,93.75a40.55,40.55,0,0,1-11.39-1.59l1.73-12.54a25.44,25.44,0,0,0,8,1.22c6.5,0,10.57-2.95,10.57-13.52Z"/><path class="cls-1" d="M62.73,76.78A39.14,39.14,0,0,0,79.89,81C87,81,90.77,78.1,90.77,73.53c0-4.17-3.25-6.71-11.48-9.54-11.39-4.06-18.9-10.34-18.9-20.42C60.39,31.87,70.25,23,86.3,23c7.82,0,13.41,1.53,17.49,3.46l-3.47,12.38A32,32,0,0,0,86.1,35.62c-6.71,0-10,3.18-10,6.61,0,4.37,3.76,6.3,12.72,9.76,12.09,4.47,17.68,10.77,17.68,20.53C106.54,84,97.8,93.75,79,93.75c-7.82,0-15.55-2.13-19.41-4.27Z"/></g><rect class="cls-1" x="1" y="1" width="118" height="118"/></svg>