<svg id="Layer_1" data-name="Layer 1" xmlns="http://www.w3.org/2000/svg" viewBox="0 0 120 120"><defs><style>.cls-1{fill:none;stroke:#f35045;stroke-miterlimit:10;}</style></defs><title>laravel</title><path class="cls-1" d="M75,96.88c.92,1.33,1.49,1.23,2.2.92S114.75,85,115.88,84.63s.77-.77.41-1.33S103.64,66,103,65.07s-.92-.77-1.9-.46L62,74.78S74,95.54,75,96.88Z"/><path class="cls-1" d="M119,79.87V60.33l-12.16,3.24C110.16,68,115.34,74.94,119,79.87Z"/><path class="cls-1" d="M106.81,39.5c-.6.14-13.94,2.55-14.76,2.66s-.55.58-.22,1L103.56,59.3s14.35-3.56,15.23-3.75l.21,0V53.37c-2.61-3.31-9.72-12.32-10.33-13.16-.74-1-1.26-.85-1.86-.71Z"/><path class="cls-1" d="M22.87,14.2c2.89-.13,3.15.53,4.42,2.41l31.88,53.3,40.09-9.6C97,57.16,87,42.86,86,41.5,84.89,40,86,39.25,87.8,39s17.12-2.88,18.43-3.07,2.36-.66,4.49,1.92c1.09,1.32,4.8,5.93,8.28,10.26V23.13a21.31,21.31,0,0,0-6.49-15.63A21.31,21.31,0,0,0,96.88,1H23.13A21.31,21.31,0,0,0,7.49,7.49a21.73,21.73,0,0,0-5.31,8.32c7.23-.59,18.67-1.52,20.69-1.61Z"/><path class="cls-1" d="M78.57,104c-3.38,1-4.9,1.53-7.1-1.54-1.65-2.3-10.57-18.37-14.94-26.28-8.28,2.17-23.42,6.12-27.79,7.17S22.66,81.86,22,80.29c-.49-1.1-13-28-21-45.34V96.88a21.31,21.31,0,0,0,6.49,15.63A21.31,21.31,0,0,0,23.13,119H96.88A22.16,22.16,0,0,0,119,96.88V89.6c-9.05,3.31-38.15,13.76-40.43,14.45Z"/><path class="cls-1" d="M28.85,77.19C30,76.91,52.5,71.54,53,71.44s.79-.38.27-1.27L23.32,18.5c-.27-.47-.19-.62-.93-.58S5.09,19.44,1.23,19.76A23.53,23.53,0,0,0,1,22.22c3.91,8,26.37,54.32,26.49,54.69s.14.55,1.33.27Z"/></svg>