<svg id="Layer_1" data-name="Layer 1" xmlns="http://www.w3.org/2000/svg" viewBox="0 0 120 120"><defs><style>.cls-1{fill:none;stroke:#0078c8;stroke-miterlimit:10;}</style></defs><title>PHP-b</title><path class="cls-1" d="M81.66,83.09h-8l7.08-36.43c.23,0,.41-.06.6-.06H96.77a18.88,18.88,0,0,1,4.33.58,9.15,9.15,0,0,1,7.33,9.26,16.42,16.42,0,0,1-6.36,13.68,15.81,15.81,0,0,1-9.71,3.19c-2.68.09-5.35,0-8,0-.57,0-.82.12-.94.75C82.86,77.1,82.25,80.06,81.66,83.09Zm3-15.35c2.77-.11,5.35-.08,7.91-.34A7.27,7.27,0,0,0,99.22,62a20.17,20.17,0,0,0,.82-4.85c.11-2.58-1-4-3.52-4.39-2.91-.4-5.88-.39-8.87-.57Z"/><path class="cls-1" d="M19.52,83.08h-8l7.08-36.41c.26,0,.51-.06.76-.06h15.1a19.08,19.08,0,0,1,4.24.54c4.53,1.11,7.15,4,7.5,8.61.67,9-5.38,15.42-11.35,16.88a25.59,25.59,0,0,1-4.93.68c-2.61.11-5.22.06-7.83,0-.54,0-.77.14-.88.71C20.72,77.07,20.12,80,19.52,83.08Zm3-15.34c2.75-.11,5.34-.07,7.89-.34a7.31,7.31,0,0,0,6.76-5.57A20.25,20.25,0,0,0,38,57.16c.11-2.58-1-4-3.51-4.4-2.91-.4-5.88-.39-8.88-.57Z"/><path class="cls-1" d="M51.79,36.92h7.89L57.81,46.6c2.14,0,4.21-.07,6.28,0a38.42,38.42,0,0,1,6.26.57c4.29.91,6.11,3.7,5.34,8.09-.87,5-1.89,9.93-2.84,14.9-.16.87-.3,1.76-.53,2.62a.86.86,0,0,1-.57.56H64.2c.47-2.41.91-4.71,1.35-7,.64-3.34,1.32-6.67,1.9-10,.43-2.46-.53-3.67-3-3.78s-5.09,0-7.77,0l-4,20.8H44.71Z"/><rect class="cls-1" x="0.94" y="1.47" width="118" height="118"/></svg>