<svg id="Layer_1" data-name="Layer 1" xmlns="http://www.w3.org/2000/svg" viewBox="0 0 120 120"><defs><style>.cls-1,.cls-2{fill:none;stroke:#0078c8;}.cls-2{stroke-linejoin:round;}</style></defs><title>photoshop</title><g id="Page-1"><g id="Photoshop"><path id="Stroke-90" class="cls-1" d="M62.46,48.1c0-12.67-7-22.59-25-22.59-6.42,0-12.58.12-16.74.33-.51,0-1.43.33-1.43.77V96.77c0,.58.27.79.79.79H30c.59,0,.79-.27.79-.79V71.68c1.75,0,2.59.13,5.06.13,14.66,0,26.6-7.12,26.6-23.72Zm36.48,7.72v-9a1.46,1.46,0,0,0-.65-1.31c-2.14-1-6-1.83-11.61-1.83-11.36,0-17.9,7-17.9,15.42,0,7.51,3.82,12,13,16.46,6.54,3.39,8,5.49,8,7.84,0,2.94-2.14,5.08-7.27,5.08a24,24,0,0,1-13-3.85c-.46-.33-.77-.12-.77.52V94.8c0,.52.06.85.51,1,2.8,1.64,7.66,2.81,13.31,2.81,10.71,0,18.62-5.61,18.62-16.06,0-7-3.18-11.76-13.37-16.73-6.87-3.58-8-5.22-8-7.57,0-2.16,1.76-4.77,6.88-4.77A21.82,21.82,0,0,1,98,56.47c.65.19,1-.13,1-.66Z"/><path id="Stroke-91" class="cls-1" d="M37.09,35.89c8.62,0,13.76,4.18,13.76,12.48,0,10.38-7.14,13.07-14.72,13.07-2.6,0-3.76,0-5.27-.13V36.08c1.18-.06,3.63-.19,6.23-.19Z"/><path id="Stroke-155" class="cls-2" d="M110.86,119H9.14A8.14,8.14,0,0,1,1,110.86V9.14A8.14,8.14,0,0,1,9.14,1H110.86A8.14,8.14,0,0,1,119,9.14V110.86a8.14,8.14,0,0,1-8.14,8.14Z"/></g></g></svg>