<svg id="Layer_2" data-name="Layer 2" xmlns="http://www.w3.org/2000/svg" viewBox="0 0 120 120"><defs><style>.cls-1{fill:none;stroke:#0078c8;stroke-miterlimit:10;}</style></defs><title>react-01</title><circle class="cls-1" cx="59.43" cy="60.06" r="8.8"/><path class="cls-1" d="M59.43,80.23c-12.37,0-23.18-1.45-31.27-4.23a39.72,39.72,0,0,1-12.87-6.89c-3.37-2.88-5.16-6-5.16-9.09,0-5.85,6.39-11.53,17.11-15.24C36,41.73,47.45,40,59.41,40c11.75,0,23,1.67,31.74,4.67a40.37,40.37,0,0,1,12.45,6.57c3.34,2.77,5.07,5.85,5.07,8.77,0,6.06-7.14,12.18-18.65,16C81.9,78.74,71,80.23,59.43,80.23Zm0-36c-11.35,0-22.55,1.67-30.79,4.51C18.77,52.21,14.35,56.92,14.35,60s4.75,8.44,15.18,12c7.65,2.61,18,4,29.9,4,11.16,0,21.56-1.4,29.3-4,10.86-3.6,15.77-8.74,15.77-12,0-1.67-1.26-3.63-3.56-5.55a36.11,36.11,0,0,0-11.13-5.85c-8.3-2.83-19.09-4.39-30.39-4.39Z"/><path class="cls-1" d="M39.44,104a9.25,9.25,0,0,1-4.7-1.16c-5-2.92-6.79-11.3-4.67-22.44,1.74-9.14,6-19.88,12-30.25C47.88,39.93,55,31,61.93,24.93a40.09,40.09,0,0,1,11.92-7.51c4.05-1.5,7.56-1.5,10.12,0,5.25,3,7,12.28,4.53,24.14C86.77,50,82.66,60.14,76.81,70.2,70.65,80.91,64,89.51,57.55,95.11a39.76,39.76,0,0,1-12.4,7.7A17.1,17.1,0,0,1,39.44,104Zm6.06-51.51-.1.23c-5.67,9.86-9.6,19.88-11.21,28.48-1.95,10.27-.07,16.44,2.63,18a5.2,5.2,0,0,0,2.61.59c3.49,0,9-2.21,15.34-7.75,6.09-5.31,12.45-13.6,18.38-23.9,5.58-9.66,9.55-19.39,11.19-27.37,2.3-11.18.32-18-2.51-19.65-1.44-.84-3.78-.72-6.58.32a35.83,35.83,0,0,0-10.6,6.74c-6.59,5.75-13.34,14.35-19,24.1Z"/><path class="cls-1" d="M79.41,104c-4.77,0-10.86-2.87-17.14-8.35C55.22,89.58,48.06,80.55,42,70.17h0C36.15,60,31.94,49.46,30.16,40.38a40.25,40.25,0,0,1-.56-14.08c.74-4.26,2.51-7.3,5-8.79,5.23-3,14.13.09,23.18,8.14C64.22,31.37,71,40,76.77,50.07c6.22,10.7,10.38,20.81,12,29.16a40.1,40.1,0,0,1,.49,14.6c-.84,4.37-2.63,7.48-5.26,9A9,9,0,0,1,79.41,104ZM45.71,68.11C51.4,77.93,58.45,86.83,65,92.5,73,99.31,79.25,100.78,82,99.18s4.89-8.35,2.76-19.12c-1.6-7.92-5.6-17.53-11.55-27.87-5.6-9.66-12-18-18.13-23.39-8.5-7.56-15.44-9.26-18.27-7.63-1.44.84-2.51,2.92-3,5.85a35.92,35.92,0,0,0,.54,12.53C36,48.19,40,58.35,45.71,68.11Z"/><rect class="cls-1" x="1" y="1" width="118" height="118"/></svg>